<svg width="61" height="61" fill="none" xmlns="http://www.w3.org/2000/svg"><rect x=".424" y=".398" width="60" height="60" rx="11.724" fill="url(#a)"/><path d="M20.507 21.629c-4.067-1.073-6.203-2.633-9.243-7.518 3.232 16.607 8.058 23.363 18.753 28.848-5.402-7.068-8.555-12.782-9.51-21.33zm15.314 27.254C28.304 37.98 23.957 25.555 23.957 13.088c2.752 4.34 4.58 5.695 8.237 7.253 1.084 6.84 4.521 13.114 8.912 18.396-1.614 4.012-2.527 5.587-5.285 10.146zm6.399-13.242c2.188-7.646 3.002-13.899 3.333-23.156-2.659 5.18-4.826 7.347-8.582 8.669.446 4.217 2.624 11.168 5.248 14.487z" fill="#fff"/><defs><linearGradient id="a" x1="20.276" y1="38.523" x2="54.813" y2="2.699" gradientUnits="userSpaceOnUse"><stop stop-color="#5E259C"/><stop offset="1" stop-color="#9A2D92"/></linearGradient></defs></svg>