<svg width="38" height="41" viewBox="0 0 38 41" fill="none" xmlns="http://www.w3.org/2000/svg">
<path d="M10.2127 10.1022C5.71944 8.91666 3.35928 7.19337 0 1.79574C3.57107 20.1436 8.90353 27.6085 20.7192 33.6689C14.7512 25.86 11.2673 19.547 10.2127 10.1022Z" fill="#0F0F0F"/>
<path d="M27.1319 40.2136C18.8269 28.1677 14.0243 14.4402 14.0243 0.66642C17.0647 5.46192 19.0848 6.95831 23.1251 8.67916C24.3222 16.2359 28.1198 23.1675 32.9713 29.0034C31.1874 33.4368 30.1784 35.176 27.1319 40.2136Z" fill="#0F0F0F"/>
<path d="M34.2009 25.5837C36.6195 17.1359 37.5182 10.2273 37.8841 0C34.9466 5.7229 32.5523 8.11712 28.4028 9.577C28.8949 14.2368 31.3013 21.9161 34.2009 25.5837Z" fill="#0F0F0F"/>
</svg>
